# xmcd
#
# Track frame offsets:
# 150
# 13735
# 30584
# 45256
# 60447
# 78342
# 95332
# 105953
# 117084
# 131147
# 146840
# 158977
# 173645
# 188107
# 200691
# 215381
# 229755
# 242237
# 255755
# 268404
# 278078
# 291590
# 310081
# 322904
#
# Disc length: 4448 seconds
#
#
# Revision: 0
# Processed by: cddbd v1.5.1PL2 Copyright (c) Steve Scherf et al.
# Submitted via: FreeRIP 2.943 
#
DISCID=4e115e18
DTITLE=classicos sertanejo - 4 X 4
DYEAR=1900
DGENRE=Country
TTITLE0=rei do gado
TTITLE1=rei do cafe
TTITLE2=barco de papel
TTITLE3=viola cabocla
TTITLE4=tristeza do jeca
TTITLE5=preto fugido
TTITLE6=homem de pedra
TTITLE7=baile na roça
TTITLE8=encantos da natureza
TTITLE9=rinçao da minha terra
TTITLE10=cruz pesada
TTITLE11=chico mineiro
TTITLE12=rei do pagode
TTITLE13=ultimo adeus
TTITLE14=telefone mudo
TTITLE15=moreninha linda
TTITLE16=rancho dos ipes
TTITLE17=canoeiro
TTITLE18=beco sem saida
TTITLE19=viva viola
TTITLE20=navalha na carne
TTITLE21=ultima viagem
TTITLE22=as andorinhas
TTITLE23=adeus moçada
EXTD=tiao carreiro e pardinho\ncarreiro e carreirinho\ntrio parada dura\ntonico e tinoco
EXTT0=tiao carreiro e pardinho
EXTT1=carreiro e carreirinho
EXTT2=trio parada dura
EXTT3=tonico e tinoco
EXTT4=tiao carreiro e pardinho
EXTT5=carreiro e carreirinho
EXTT6=trio parada dura
EXTT7=tonico e tinoco
EXTT8=tiao carreiro e pardinho
EXTT9=carreiro e carreirinho
EXTT10=trio parada dura
EXTT11=tonico e tinoco
EXTT12=tiao carreiro e pardinho
EXTT13=carreiro e carreirinho
EXTT14=trio parada dura
EXTT15=tonico e tinoco
EXTT16=tiao carreiro e pardinho
EXTT17=carreiro e carreirinho
EXTT18=trio parada dura
EXTT19=tonico e tinoco
EXTT20=tiao carreiro e pardinho
EXTT21=carreiro e carreirinho
EXTT22=trio parada dura
EXTT23=tonico e tinoco
PLAYORDER=
